# xmcd
#
# Track frame offsets: 
#        150
#        16884
#        32512
#        48878
#        63509
#        78324
#        94151
#        111083
#        127747
#        148621
#        165616
#        184397
#        203225
#
# Disc length: 2949 seconds
#
# Revision: 0
# Processed by: cddbd v1.5.2PL0 Copyright (c) Steve Scherf et al.
# Submitted via: ExactAudioCopy v0.95b2
#
DISCID=a60b830d
DTITLE=Melanie Fiona - The Bridge (Swiss Edition)
DYEAR=2009
DGENRE=R&B
TTITLE0=Give It To Me Right
TTITLE1=Bang Bang
TTITLE2=Monday Morning
TTITLE3=Please Don' T Go (Cry Baby)
TTITLE4=Ay Yo
TTITLE5=Walk On By
TTITLE6=You Stop My Heart
TTITLE7=Johnny
TTITLE8=Sad Songs
TTITLE9=Priceless
TTITLE10=It Kills Me
TTITLE11=Teach Him
TTITLE12=Give It To Me Right
EXTD=
EXTT0=
EXTT1=
EXTT2=
EXTT3=
EXTT4=
EXTT5=
EXTT6=
EXTT7=
EXTT8=
EXTT9=
EXTT10=
EXTT11=
EXTT12=
PLAYORDER=
